<svg xmlns="http://www.w3.org/2000/svg" xmlns:xlink="http://www.w3.org/1999/xlink" width="241.723" height="241.723" viewBox="0 0 226.614 226.614"><defs><clipPath id="A"><path d="M0 600h800V0H0v600z"/></clipPath><path id="B" d="M554.43 299.6c0-85.3-69.14-154.43-154.43-154.43S245.57 214.32 245.57 299.6 314.7 454.04 400 454.04 554.43 384.9 554.43 299.6"/></defs><g clip-path="url(#A)" transform="matrix(.597871 0 0 -.597871 -125.843209 296.43506)"><g transform="matrix(.81 0 0 .81 76.000608 63.616306)"><use xlink:href="#B" fill="#7cb7ed"/><path d="M447 151.47s-48.604-15.48-97.9 1.3c0 0 28.344 4.175 41.625 11.737S447 151.47 447 151.47" fill="#fff"/><g fill="#0fb55e" stroke="#0fb55e" stroke-width="6.69" stroke-linejoin="round"><path d="M487.95 212.66l-1.38 39.064c-.46 12.41 4.136 20.682-1.84 32.17s-1.38 20.682-6.893 21.14-22.98 3.677-32.63 0-30.793 12.41-31.252 22.98-3.676 18.383-3.676 18.383 11.95 19.262 15.166 18.593 3.677 12.2 5.975 13.118 26.655 7.354 33.55 7.354 1.838-7.354 1.838-7.354l21.14-7.8 3.677 8.273L510 373.057s-.46 11.03-4.596 12.41-21.6 9.65-21.6 9.65 3.678-6.894 1.84-8.732-7.813 8.732-7.813 8.732l-13.327 5.055s-9.192-1.38-14.248-3.217-7.353-10.57-7.353-10.57-9.19-4.596-15.166-3.217-4.137 12.868-4.137 12.868 11.03.92 11.95 4.136-7.812 9.192-7.812 9.192l6.893 3.217 6.434 11.232 10.11-1.122 3.217 11.95-.807 11.806s67.293-31.638 88.5-83.995l-10.953 6.928 4.596-10.11 1.838 1.38 5.515-10.1v-8.273l-2.757-12.7s-17.515 29.546-25.737 37.068c0 0 11.957-27.574 26.197-41.822l4.595 4.754v-22.233l-4.136-9.652-5.055-15.166-.92-11.95v-14.247l-6.894-6.893-6.893-5.056v-5.975l-6.894-9.203-9.65-10.1-9.65-6.435h-7.353z"/><path d="M355.05 160.34l-9.19 11.95 1.38 6.435h5.974l-1.274 6.59 1.734 8.577 1.378 6.433 5.2 5.407s11.807 4.705 10.428 21.25c0 0 10.11 13.788 7.812 21.14s-16.145 6.894-16.145 6.894l-22.92 9.65s-1.838 9.652-8.272 10.57-8.273-3.677-11.03 0-6.576 9.194-13.858 9.652-16.474 6.432-16.474 6.432-1.38 5.055-9.19 3.217c0 0-5.056 5.056-2.758 15.167 0 0-.46 5.515-7.354 3.217 0 0-5.514 5.975-7.353 5.975s-4.596 17.464 3.678 25.277c0 0 7.812 9.19 16.545 3.676 0 0-.46-8.732.918-12.868s4.136 5.975 4.136 5.975l.46 12.868s5.975 2.758 11.03 7.353 3.216 10.57 10.1 15.166 8.272 0 8.272 0l.46 7.813h6.435l15.626 6.894s-7.354-.46-10.11 3.677l19.76 10.57v5.974l-1.355 12.41-4.62-5.515-.918 5.515-8.733 1.12h-3.216l-7.354-3.42-.46-4.596-8.272-3.676-4.137 4.136 3.218 4.136 3.216 3.42 8.566 11.597s-56.81-31.864-73.36-88.24l-1.384-24.206c-.46-6.434 5.054-12.408 5.054-12.408h5.056l1.838-4.596 4.136-1.38 2.3-1.38 1.378-3.583 1.838-6.528 4.137-.92 2.297-4.135 2.758-.46-.92 3.676h3.677l1.378-3.216-4.136-3.217-1.38-3.218-.46-7.352.46-5.516.46-5.055-4.136-2.298.918-5.055.46-3.217v-5.056l-2.3-.92 16.545-22.52 5.056-1.84 3.216-.46 5.056-1.84 4.137-7.812 15.166-33.55c1.838-4.124 21.14-21.13 29.412-19.75" stroke-linecap="round"/></g><path d="M400 455.04c51.067 0 79.3-21.887 79.3-21.887s-18.978-8.148-48.39 0c0 0-22.69-1.096-38.656-7.82s-24.437 10.924-24.437 10.924-13.98-9.608-38.05 1.92c0 0 31.78 16.863 70.243 16.863" fill="#fff"/><g fill="none" stroke="#2c89a0"><use xlink:href="#B"/><path d="M557.463 299.6c0-86.965-70.498-157.46-157.46-157.46s-157.46 70.497-157.46 157.46 70.498 157.46 157.46 157.46 157.46-70.496 157.46-157.46" stroke-width="6.69"/></g></g></g><ellipse cx="78.057" cy="102.404" rx="7.5" ry="7.143"/><ellipse ry="7.143" rx="7.5" cy="102.404" cx="150.057"/><path d="M131.132 114.605c-1.42 14.713-32.43 15.287-34.286 0" fill="none" stroke="#000" stroke-width="3" stroke-linecap="round" stroke-linejoin="round"/><g fill="#faa"><ellipse cx="63.714" cy="120.184" rx="5.89" ry="3.017"/><ellipse ry="3.017" rx="5.89" cy="120.184" cx="157.714"/></g></svg>